<mxfile host="65bd71144e">
    <diagram id="F0S1704YivVodbydzf-N" name="Page-1">
        <mxGraphModel dx="820" dy="1279" grid="1" gridSize="10" guides="1" tooltips="1" connect="1" arrows="1" fold="1" page="1" pageScale="1" pageWidth="850" pageHeight="1100" math="0" shadow="0">
            <root>
                <mxCell id="0"/>
                <mxCell id="1" parent="0"/>
                <mxCell id="16" value="" style="rounded=0;whiteSpace=wrap;html=1;fontSize=18;fillColor=#1ba1e2;strokeColor=#006EAF;fontColor=#ffffff;" vertex="1" parent="1">
                    <mxGeometry x="10" y="110" width="490" height="120" as="geometry"/>
                </mxCell>
                <mxCell id="17" value="Device&amp;nbsp;&lt;br style=&quot;font-size: 10px;&quot;&gt;A" style="rounded=0;whiteSpace=wrap;html=1;fontSize=10;fillColor=#d80073;strokeColor=#A50040;fontColor=#ffffff;" vertex="1" parent="1">
                    <mxGeometry x="530" y="110" width="40" height="120" as="geometry"/>
                </mxCell>
                <mxCell id="18" value="Device&lt;br style=&quot;font-size: 10px;&quot;&gt;B" style="rounded=0;whiteSpace=wrap;html=1;fontSize=10;fillColor=#1ba1e2;strokeColor=#006EAF;fontColor=#ffffff;" vertex="1" parent="1">
                    <mxGeometry x="570" y="110" width="40" height="120" as="geometry"/>
                </mxCell>
                <mxCell id="19" value="Device&lt;br style=&quot;font-size: 10px;&quot;&gt;C" style="rounded=0;whiteSpace=wrap;html=1;fontSize=10;fillColor=#1ba1e2;strokeColor=#006EAF;fontColor=#ffffff;" vertex="1" parent="1">
                    <mxGeometry x="610" y="110" width="40" height="120" as="geometry"/>
                </mxCell>
                <mxCell id="21" style="edgeStyle=orthogonalEdgeStyle;html=1;exitX=0.25;exitY=1;exitDx=0;exitDy=0;entryX=0.5;entryY=0;entryDx=0;entryDy=0;fontSize=18;startArrow=open;startFill=0;endArrow=open;endFill=0;startSize=16;endSize=16;" edge="1" parent="1" source="20" target="24">
                    <mxGeometry relative="1" as="geometry"/>
                </mxCell>
                <mxCell id="22" style="edgeStyle=orthogonalEdgeStyle;html=1;exitX=0.75;exitY=1;exitDx=0;exitDy=0;entryX=0.5;entryY=0;entryDx=0;entryDy=0;fontSize=18;startArrow=open;startFill=0;endArrow=open;endFill=0;startSize=16;endSize=16;" edge="1" parent="1" source="20" target="17">
                    <mxGeometry relative="1" as="geometry"/>
                </mxCell>
                <mxCell id="23" style="edgeStyle=orthogonalEdgeStyle;html=1;exitX=0.5;exitY=1;exitDx=0;exitDy=0;entryX=0.5;entryY=0;entryDx=0;entryDy=0;fontSize=18;startArrow=open;startFill=0;endArrow=open;endFill=0;startSize=16;endSize=16;" edge="1" parent="1" source="20" target="25">
                    <mxGeometry relative="1" as="geometry"/>
                </mxCell>
                <mxCell id="20" value="Process" style="rounded=1;whiteSpace=wrap;html=1;fontSize=18;" vertex="1" parent="1">
                    <mxGeometry x="170" y="10" width="120" height="40" as="geometry"/>
                </mxCell>
                <mxCell id="24" value="" style="rounded=0;whiteSpace=wrap;html=1;fontSize=18;fillColor=#d80073;strokeColor=#A50040;fontColor=#ffffff;" vertex="1" parent="1">
                    <mxGeometry x="130" y="110" width="10" height="120" as="geometry"/>
                </mxCell>
                <mxCell id="25" value="" style="rounded=0;whiteSpace=wrap;html=1;fontSize=18;fillColor=#d80073;strokeColor=#A50040;fontColor=#ffffff;" vertex="1" parent="1">
                    <mxGeometry x="225" y="110" width="10" height="120" as="geometry"/>
                </mxCell>
                <mxCell id="28" value="Physical Memory" style="text;html=1;strokeColor=none;fillColor=none;align=center;verticalAlign=middle;whiteSpace=wrap;rounded=0;fontSize=18;" vertex="1" parent="1">
                    <mxGeometry x="260" y="160" width="160" height="20" as="geometry"/>
                </mxCell>
            </root>
        </mxGraphModel>
    </diagram>
</mxfile>